<svg xmlns="http://www.w3.org/2000/svg"><symbol viewBox="0 0 374 410" id="icon-beer"><title>beer</title><path d="M268.195 362.58V144.394c18.965-10.148 31.89-30.104 31.89-53.018 0-32.012-25.228-58.264-56.905-60.043C230.034 13.064 207.95 0 181.934 0c-16.646 0-33.346 5.497-47.078 16.468-6.617-2.15-13.586-3.27-20.672-3.27-16.727 0-32.385 6.128-44.378 16.796-3.113-.488-6.276-.738-9.468-.738C27.068 29.256 0 56.232 0 89.396c0 23.848 14 44.5 34.242 54.217V362.58c0 11.344-9.227 20.546-20.612 20.546V410h275.177v-26.878c-11.385 0-20.612-9.198-20.612-20.54zm-149.026.852H89.154V141.28c2 1.198 14.605 5.886 30.015 4.745v217.407zm120.583-238.845c-10.74 0-20.282-5.065-26.377-12.925l-7.73 5.4c-26.075 20.123-1.94 56.424-.147 73.875 1.714 16.684-8.67 29.252-25.012 29.252-15.93 0-25.272-13.425-24.012-29.253 1.334-16.703 26.762-49.848-1.432-75.814-4.176-3.846-6.3-5.538-10.66-9.707-7.283 8.5-18.11 13.892-30.203 13.892-10.36 0-19.79-3.96-26.863-10.434-6.057 8.318-15.882 13.734-26.982 13.734-18.404 0-33.324-14.87-33.324-33.215 0-18.344 14.92-33.215 33.325-33.215 6.826 0 13.172 2.05 18.457 5.562 6.573-12.827 19.947-21.618 35.39-21.618 10.138 0 19.382 3.79 26.4 10.02 8.476-13.92 23.82-23.22 41.35-23.22 21.516 0 39.74 14.02 46 33.393 3.675-1.39 7.653-2.157 11.816-2.157 18.4 0 33.317 14.868 33.317 33.214.01 18.344-14.907 33.215-33.312 33.215zm49.054 212.72V300.4c54.073-31.26 66.48-107.23 25.063-107.23h-25.063v-33.793h31.23c85.4 0 65.324 141.555-31.23 177.93z"/></symbol><symbol viewBox="0 0 286 412" id="icon-bitcoin"><title>bitcoin</title><path d="M170.28 412H85.303v-37.037H0V37.04h85.302V0h84.98v37.52c46.31 3.07 88.285 22.23 102.217 66.014 9.976 31.35 1.54 66.9-16.512 89.41 24.95 23.66 36.23 63.702 26.58 100.817-13.295 51.136-59.047 76.87-112.287 80.657V412zm-55.012-29.915h25.05v-37c50.93-.146 100.284-8.987 113.247-58.84 15.78-60.683-33.26-83.776-48.62-90.392 9.02-3.93 55.923-30.072 39-83.263-13.23-41.568-61.423-45.636-103.626-45.636v-37.04h-25.05v37.04H29.965v278.09h85.303v37.04zm36.955-72.112H72.69v-94.416l80.603.002c74.998.786 77.843 94.413-1.07 94.413zm-49.57-29.916h54.556c26.468 0 27.726-34.283.83-34.584h-55.386v34.584zm55.642-97.178H72.69v-80.85h78.09c74.454 0 64.86 80.85 7.515 80.85zm-55.64-29.917h53.642c18.89 0 18.973-21.02-.525-21.02h-53.115l-.003 21.02z"/></symbol><symbol viewBox="0 0 412 318" id="icon-camera"><title>camera</title><path id="camera-body" d="M357.56 51.21c-10.908 0-20.958-5.917-26.243-15.453L311.497 0H157.832l-17.92 34.913c-5.133 10.005-15.44 16.297-26.693 16.297H0V318h412V51.21h-54.44zM84.33 129.898c-11.32 0-20.5-9.17-20.5-20.484s9.18-20.484 20.5-20.484c11.323 0 20.5 9.17 20.5 20.484s-9.177 20.484-20.5 20.484zM236.355 279.53c-54.668 0-99.146-44.44-99.146-99.068 0-54.626 44.477-96.778 99.146-96.778 54.67 0 99.146 42.152 99.146 96.778 0 54.627-44.477 99.068-99.146 99.068z"/><path id="camera-flash" d="M26.83 7.744h65.5v26.98h-65.5z"/><path id="camera-lens" d="M289.652 180.462c0 29.367-23.91 53.257-53.3 53.257s-53.297-23.89-53.297-53.258c0-29.366 23.91-53.256 53.298-53.256s53.3 23.89 53.3 53.256z"/></symbol><symbol viewBox="0 0 412 326" id="icon-check-mark"><title>check-mark</title><path d="M348.218 0l-198.49 198.473-85.974-85.993L0 176.24 149.733 326 412 63.735z"/></symbol><symbol viewBox="0 0 412 378" id="icon-diamond"><title>diamond</title><path d="M309 0H104.434L0 120.272 206 378l206-256.292L309 0zM204.843 94.817L144.44 34.363h110.746l-50.343 60.454zm-40.284 8.274H60.41l48.424-55.773 55.725 55.774zm24.273 34.364V301.52L57.693 137.455h131.14zm34.333 0H355.27L223.166 301.822V137.454zm128.08-34.363h-108.6L296.51 38.4l54.736 64.69z"/></symbol><symbol viewBox="0 0 412 306" id="icon-email"><title>email</title><path d="M0 0v306H412V0H0zm365.335 35.093L205.947 157.477 46.67 35.093h318.665zM34.957 70.286l85.398 65.616-85.398 85.73V70.287zm.355 200.62L148.358 157.42l57.582 44.244 57.304-44 112.8 113.24-340.732.002zm341.73-48.624l-85.787-86.126 85.788-65.87V222.28z"/></symbol><symbol viewBox="0 0 408 412" id="icon-magnifier"><title>magnifier</title><path d="M395.943 344.325l-85.262-85.437c16.526-26.096 26.108-57.02 26.108-90.147C336.788 75.698 261.248 0 168.394 0 75.54 0 0 75.697 0 168.742c0 93.044 75.54 168.742 168.394 168.742 31.42 0 60.85-8.676 86.048-23.75l86.014 86.194c36.7 36.776 92.22-18.794 55.487-55.603zM52.215 168.742c0-64.195 52.116-116.422 116.18-116.422 64.063 0 116.182 52.226 116.182 116.422 0 64.194-52.12 116.42-116.183 116.42-64.063 0-116.18-52.227-116.18-116.42zm34.413-30.28c34.007-78.946 148.45-69.793 169.998 12.87-43.418-51.066-119.808-56.565-169.998-12.87z"/></symbol><symbol viewBox="0 0 276 412" id="icon-microphone"><title>microphone</title><path id="microphone-capsule" d="M70 185.15V68.054C70 30.47 100.445 0 138 0c37.557 0 68 30.47 68 68.055V185.15c0 37.586-30.443 68.057-68 68.057-37.555 0-68-30.47-68-68.058z"/><path id="microphone-yoke" d="M236 150.12v35.03c0 54.08-43.963 98.08-98 98.08s-98-44-98-98.08v-35.03H0v35.03c0 68.487 50.07 125.48 115.5 136.267v41.342C77.248 365.55 49 375.335 49 386.98 49 400.797 88.784 412 137.86 412s88.86-11.202 88.86-25.02c0-11.614-28.108-21.38-66.22-24.2v-41.362c65.43-10.787 115.5-67.78 115.5-136.27v-35.027h-40z"/></symbol><symbol viewBox="0 0 412 154" id="icon-sunglasses"><title>sunglasses</title><path d="M308.06 0c-19.546 0-40.804 2.206-58.27 8.405-39.194 14.17-47.913 14.347-87.578 0C144.742 2.205 123.452 0 103.94 0 70.107 0 32.354 6.618 0 15.022v30.605c14.55 4.37 18.34 10.728 20.654 25.54C27.192 112.993 42.214 154 107.66 154c52.138 0 69.54-38.667 81.073-74.353 5.834-18.13 28.533-18.598 34.467-.25C234.767 115.132 252.067 154 304.307 154c65.48 0 80.502-41.008 87.04-82.832 2.313-14.813 6.103-21.17 20.653-25.54V15.02C379.61 6.618 341.89 0 308.06 0zM42.447 84.093c-2.012-6.115-3.822-12.382-5.365-18.832-6.034-25.206-.735-30.603 7.444-35.483 11.937-7.15 33.864-11.38 56.562-12.524-41.808 9.483-59.61 19.108-58.64 66.84zm201.71 0c-2.013-6.115-3.823-12.382-5.366-18.832-6.035-25.206-.738-30.603 7.443-35.483 11.937-7.15 33.862-11.38 56.562-12.524-41.81 9.483-59.612 19.108-58.64 66.84z"/></symbol><symbol viewBox="0 0 412 334" id="icon-twitter"><title>twitter</title><path d="M412 39.537c-15.158 6.708-31.45 11.24-48.547 13.277 17.45-10.435 30.854-26.96 37.164-46.65-16.333 9.664-34.422 16.68-53.676 20.46C331.524 10.24 309.556 0 285.244 0c-54.56 0-94.668 50.79-82.337 103.532-70.25-3.515-132.534-37.085-174.223-88.097C6.54 53.325 17.198 102.91 54.84 128.007c-13.853-.437-26.89-4.23-38.284-10.548-.917 39.065 27.146 75.594 67.795 83.742-11.895 3.228-24.925 3.97-38.17 1.443 10.755 33.497 41.973 57.875 78.96 58.555C89.605 288.98 44.847 301.388 0 296.116 37.406 320.04 81.837 334 129.57 334c156.933 0 245.596-132.226 240.252-250.816C386.34 71.296 400.668 56.446 412 39.537z"/></symbol></svg>