<svg version="1.1" xmlns="http://www.w3.org/2000/svg" width="374px" height="410px" viewBox="0 0 374 410">
	<path id="beer" d="M268.195,362.581V144.393c18.965-10.148,31.889-30.104,31.889-53.018
		c0-32.012-25.227-58.264-56.904-60.043C230.034,13.064,207.95,0,181.934,0c-16.646,0-33.346,5.497-47.078,16.468
		c-6.617-2.149-13.586-3.269-20.672-3.269c-16.727,0-32.385,6.127-44.378,16.795c-3.113-0.488-6.276-0.738-9.468-0.738
		C27.068,29.256,0,56.232,0,89.395c0,23.849,14.001,44.501,34.242,54.218v218.968c0,11.343-9.227,20.545-20.612,20.545V410h275.177
		v-26.878C277.422,383.122,268.195,373.924,268.195,362.581z M119.169,363.432H89.155V141.279c1.999,1.199,14.605,5.887,30.015,4.746
		L119.169,363.432L119.169,363.432L119.169,363.432z M239.753,124.587c-10.739,0-20.282-5.065-26.377-12.925c0,0-7.729,5.4-7.731,5.4
		c-26.074,20.123-1.938,56.424-0.146,73.875c1.715,16.684-8.67,29.252-25.011,29.252c-15.93,0-25.272-13.424-24.012-29.252
		c1.334-16.703,26.762-49.848-1.432-75.814c-4.176-3.846-6.299-5.538-10.659-9.707c-7.284,8.5-18.11,13.892-30.204,13.892
		c-10.36,0-19.792-3.959-26.864-10.434c-6.057,8.318-15.882,13.734-26.982,13.734c-18.404,0-33.324-14.87-33.324-33.215
		c0-18.344,14.92-33.215,33.324-33.215c6.826,0,13.172,2.051,18.457,5.562c6.573-12.827,19.947-21.618,35.389-21.618
		c10.139,0,19.383,3.791,26.402,10.021c8.475-13.92,23.818-23.221,41.348-23.221c21.517,0,39.741,14.019,46.002,33.393
		c3.674-1.39,7.652-2.157,11.815-2.157c18.401,0,33.317,14.868,33.317,33.214C273.074,109.716,258.158,124.587,239.753,124.587z
		 M288.807,337.307V300.4c54.073-31.26,66.479-107.23,25.063-107.23h-25.063v-33.793h31.229
		C405.436,159.377,385.361,300.932,288.807,337.307z"/>
</svg>
