<svg version="1.1" xmlns="http://www.w3.org/2000/svg" width="286px" height="412px" viewBox="0 0 286 412">
	<path id="bitcoin" d="M170.281,412H85.302v-37.037H0V37.039h85.302V0h84.979v37.521
		c46.312,3.07,88.286,22.23,102.218,66.013c9.977,31.35,1.54,66.901-16.511,89.411c24.951,23.66,36.229,63.701,26.58,100.816
		c-13.295,51.135-59.047,76.868-112.287,80.656V412L170.281,412z M115.268,382.085h25.049v-37
		c50.93-0.146,100.285-8.987,113.248-58.84c15.779-60.683-33.261-83.776-48.62-90.392c9.021-3.929,55.923-30.072,38.999-83.263
		c-13.228-41.568-61.422-45.636-103.625-45.636v-37.04H115.27v37.039H29.965v278.092h85.303V382.085L115.268,382.085z
		 M152.223,309.973H72.689v-94.416l80.604,0.002C228.291,216.346,231.136,309.973,152.223,309.973z M102.654,280.057h54.555
		c26.469,0,27.727-34.283,0.831-34.584h-55.386V280.057L102.654,280.057z M158.295,182.879H72.689v-80.85h78.09
		C225.234,102.029,215.641,182.879,158.295,182.879z M102.654,152.963h53.643c18.891,0,18.973-21.019-0.525-21.019h-53.115
		L102.654,152.963L102.654,152.963z"/>
</svg>
