<svg version="1.1" xmlns="http://www.w3.org/2000/svg" width="412px" height="318px" viewBox="0 0 412 318">
	<path id="body" d="M357.56,51.21c-10.908,0-20.958-5.917-26.243-15.453L311.497,0H157.832l-17.919,34.913
		c-5.134,10.005-15.441,16.297-26.694,16.297H0V318h412V51.21H357.56z M84.331,129.898c-11.322,0-20.5-9.17-20.5-20.484
		s9.178-20.484,20.5-20.484c11.322,0,20.5,9.17,20.5,20.484S95.653,129.898,84.331,129.898z M236.354,279.53
		c-54.668,0-99.146-44.441-99.146-99.068c0-54.626,44.477-96.778,99.146-96.778c54.67,0,99.146,42.152,99.146,96.778
		C335.5,235.089,291.023,279.53,236.354,279.53z"/>
	<rect id="flash" x="26.831" y="7.744" width="65.5" height="26.979"/>
	<path id="lens" d="M289.652,180.462c0,29.367-23.909,53.257-53.299,53.257s-53.298-23.89-53.298-53.257
		c0-29.366,23.909-53.256,53.298-53.256S289.652,151.096,289.652,180.462z"/>
</svg>
