<svg version="1.1" xmlns="http://www.w3.org/2000/svg" width="408px" height="412px" viewBox="0 0 408 412">
	<path d="M395.943,344.325l-85.262-85.437c16.525-26.096,26.107-57.02,26.107-90.147
		C336.789,75.697,261.248,0,168.394,0C75.541,0,0,75.697,0,168.742c0,93.044,75.54,168.742,168.394,168.742
		c31.419,0,60.849-8.676,86.048-23.749l86.014,86.193C377.157,436.704,432.675,381.134,395.943,344.325z M52.215,168.742
		c0-64.195,52.116-116.422,116.179-116.422c64.064,0,116.183,52.226,116.183,116.422c0,64.194-52.119,116.421-116.183,116.421
		C104.331,285.163,52.215,232.935,52.215,168.742z M86.628,138.463c34.007-78.947,148.45-69.794,169.998,12.87
		C213.208,100.266,136.818,94.767,86.628,138.463z"/>
</svg>
