<svg version="1.1" xmlns="http://www.w3.org/2000/svg" width="276px" height="412px" viewBox="0 0 276 412">
	<path id="capsule" d="M70,185.149V68.055C70,30.469,100.445,0,138,0c37.557,0,68,30.469,68,68.055V185.15
		c0,37.586-30.443,68.057-68,68.057C100.445,253.206,70,222.736,70,185.149z"/>
	<path id="yoke" d="M236,150.121v35.028c0,54.082-43.963,98.082-98,98.082s-98-44-98-98.082v-35.028H0v35.028
		c0,68.488,50.071,125.481,115.5,136.268v41.342c-38.252,2.792-66.5,12.577-66.5,24.22C49,400.798,88.784,412,137.861,412
		s88.86-11.202,88.86-25.021c0-11.613-28.109-21.379-66.222-24.199v-41.362C225.93,310.631,276,253.639,276,185.149v-35.028H236z"/>
</svg>
