<svg version="1.1" xmlns="http://www.w3.org/2000/svg" width="412px" height="334px" viewBox="0 0 412 334">
	<path id="twitter" d="M412,39.537c-15.158,6.708-31.449,11.241-48.547,13.277c17.449-10.435,30.854-26.959,37.164-46.649
		c-16.333,9.663-34.422,16.68-53.676,20.46C331.523,10.238,309.555,0,285.243,0c-54.56,0-94.668,50.791-82.337,103.532
		c-70.25-3.515-132.534-37.085-174.223-88.097C6.541,53.324,17.198,102.91,54.841,128.007c-13.854-0.437-26.891-4.231-38.285-10.548
		c-0.917,39.066,27.146,75.595,67.795,83.743c-11.896,3.228-24.926,3.969-38.17,1.443c10.754,33.497,41.972,57.875,78.96,58.555
		C89.604,288.98,44.846,301.388,0,296.116C37.406,320.039,81.837,334,129.571,334c156.932,0,245.595-132.226,240.251-250.816
		C386.339,71.296,400.668,56.446,412,39.537z"/>
</svg>
